<svg width="59" height="59" viewBox="0 0 59 59" fill="none" xmlns="http://www.w3.org/2000/svg">
<path d="M15.8343 29.6785C15.8115 30.1692 15.3953 30.5485 14.9045 30.5258C14.4138 30.5031 14.0345 30.0868 14.0572 29.5962C14.0799 29.1054 14.4962 28.7261 14.9868 28.7488C15.4777 28.7715 15.857 29.1877 15.8343 29.6785ZM52.6228 43.4568C52.3824 44.0017 51.9455 44.4198 51.3925 44.6342L48.7234 45.6689C48.4599 45.7711 48.1886 45.8196 47.9216 45.8196C47.0292 45.8196 46.1852 45.279 45.8438 44.3983L45.6733 43.9585L43.7804 44.7483C43.8563 45.3593 43.7433 45.9859 43.4413 46.535C43.0692 47.2114 42.4611 47.7074 41.7233 47.9385C41.9153 48.6538 41.8441 49.4388 41.4629 50.1317C40.8895 51.174 39.778 51.7359 38.6622 51.6641C38.6616 52.1443 38.5447 52.6294 38.2987 53.0766C37.9157 53.7729 37.2819 54.2784 36.5142 54.4995C36.1024 54.618 35.6798 54.6464 35.2699 54.5874C35.2526 55.0323 35.1348 55.4791 34.907 55.8932C34.5238 56.5898 33.8631 57.113 33.0941 57.3284C32.8285 57.4029 32.559 57.4399 32.2921 57.4399C31.7917 57.4399 31.2999 57.3103 30.8574 57.0563L30.2507 56.7077C29.8706 57.1892 29.3531 57.544 28.7515 57.7263C28.4592 57.815 28.1607 57.8588 27.8643 57.8588C27.373 57.8588 26.8868 57.7383 26.4428 57.5006C25.8362 57.1763 25.3759 56.6686 25.1078 56.0723C24.3214 56.3566 23.4256 56.3158 22.6445 55.8983C22.1074 55.6108 21.6831 55.1748 21.4067 54.6599C20.5683 55.054 19.5625 55.0621 18.687 54.5939C17.9749 54.2131 17.453 53.5756 17.2176 52.7988C17.103 52.4205 17.0632 52.032 17.0965 51.6508C16.6499 51.6328 16.2048 51.5163 15.7951 51.297C15.0831 50.9163 14.5613 50.2789 14.3258 49.502C14.0905 48.7253 14.1705 47.9055 14.5514 47.1936L15.2334 45.9184C15.0846 45.5358 15.0069 45.1282 14.9372 44.7537C14.8139 44.091 14.7148 43.6495 14.4699 43.5545C14.2853 43.4829 13.8402 43.2899 13.0628 42.944L12.8424 43.4427C12.4752 44.2733 11.6583 44.7685 10.8034 44.7685C10.5033 44.7685 10.1986 44.7076 9.90693 44.5787L7.28863 43.4211C6.74621 43.1813 6.32915 42.7434 6.11425 42.1881C5.89924 41.6327 5.91301 41.0281 6.15271 40.4856L12.1641 26.8845C12.6602 25.7622 13.9773 25.2522 15.0994 25.7485L17.718 26.9058C18.2604 27.1455 18.6773 27.5834 18.8922 28.1388C19.1071 28.6942 19.0935 29.2988 18.8538 29.8413L18.4698 30.7099L20.0237 31.4267C20.0461 31.4371 20.068 31.4483 20.0894 31.4604C20.9261 31.9313 21.7864 31.7635 23.121 31.4511C24.7471 31.0701 26.7441 30.6032 29.0829 31.9387C32.317 29.982 34.7992 30.9938 36.6356 31.7445C37.9447 32.2796 38.7221 32.5634 39.4709 32.1736L40.8239 31.4495L40.4687 30.5331C40.0253 29.3887 40.5953 28.0969 41.7394 27.6535L44.4085 26.6187C45.5533 26.1751 46.8448 26.7453 47.2881 27.8894L52.6632 41.7541C52.8776 42.3074 52.8633 42.912 52.6228 43.4568ZM11.1623 42.6998L17.1737 29.0988C17.2296 28.9724 17.2011 28.8584 17.1792 28.8018C17.1574 28.7451 17.1016 28.6416 16.9755 28.5858L14.3569 27.4286C14.1646 27.3433 13.9293 27.4343 13.844 27.6271L7.83265 41.2282C7.77675 41.3546 7.80522 41.4686 7.82703 41.5252C7.84896 41.5818 7.90463 41.6854 8.03114 41.7411L10.6494 42.8984C10.8421 42.9835 11.0772 42.8928 11.1623 42.6998ZM17.9352 49.5824L19.6266 46.6553C19.8687 46.0879 19.6386 45.4241 19.0928 45.1327C18.511 44.8221 17.7849 45.0419 17.4744 45.6227L16.171 48.0596C16.0215 48.339 15.9905 48.662 16.0835 48.9691C16.1766 49.2763 16.3817 49.5277 16.6611 49.6772C17.0688 49.8951 17.566 49.8538 17.9352 49.5824ZM19.0627 51.3562C18.9132 51.6356 18.8822 51.9587 18.9752 52.2658C19.0683 52.573 19.2735 52.8244 19.5529 52.9738C20.1339 53.2846 20.8611 53.0607 21.1752 52.4755L23.0579 48.8293C23.1456 48.3267 22.8987 47.8054 22.4472 47.5644C22.0353 47.3447 21.5346 47.3879 21.1649 47.6645L19.0627 51.3562ZM25.0155 53.9594L26.6779 50.7641C26.765 50.2619 26.5181 49.7414 26.0669 49.5005C25.6179 49.2612 25.0522 49.3406 24.6835 49.6844L22.8825 53.1726C22.8641 53.6283 23.1052 54.0615 23.5107 54.2786C24.0232 54.5524 24.6602 54.4136 25.0155 53.9594ZM28.9268 55.3905L30.1765 53.054C30.3922 52.6507 30.3545 52.1494 30.0805 51.7768C29.9761 51.6348 29.8435 51.5203 29.6862 51.4361C29.2374 51.1964 28.6712 51.2766 28.3023 51.6215L26.6829 54.734C26.6493 55.2 26.895 55.6594 27.3089 55.8808C27.5886 56.0304 27.9115 56.0614 28.2187 55.9684C28.5259 55.8752 28.7773 55.67 28.9268 55.3905ZM32.8468 53.4598C32.8445 53.4585 32.8424 53.4569 32.8402 53.4556L32.8401 53.4559L32.1014 53.0335C32.0467 53.3396 31.9464 53.6392 31.7961 53.9201L31.1591 55.1111L31.7721 55.4632C32.0195 55.6053 32.3131 55.6394 32.5983 55.5598C32.8957 55.4763 33.1505 55.2752 33.2976 55.0078C33.5978 54.4618 33.3957 53.7673 32.8468 53.4598ZM35.1528 52.6404C35.4121 52.7845 35.7151 52.8181 36.006 52.7341C36.3008 52.6493 36.5435 52.4564 36.6894 52.1913C36.988 51.6485 36.7837 50.9557 36.2345 50.6465C36.1902 50.6216 36.1497 50.5928 36.1112 50.5621L30.9903 47.6805C30.5482 47.4319 30.3915 46.8719 30.6402 46.4298C30.889 45.9877 31.4489 45.8308 31.891 46.0798L38.3117 49.6927L38.3132 49.6935C38.861 49.9947 39.5521 49.7943 39.8534 49.2463C40.1519 48.7036 39.9478 48.0108 39.3985 47.7017C39.3982 47.7015 39.398 47.7014 39.3979 47.7013C37.5807 46.6834 36.0664 45.8337 34.507 44.9412C34.0668 44.6893 33.9143 44.1281 34.1661 43.6879C34.418 43.2476 34.979 43.0952 35.4195 43.347C36.9721 44.2359 38.4827 45.0835 40.296 46.0992C40.2965 46.0995 40.2971 46.0998 40.2977 46.1C40.5542 46.2437 40.8547 46.2774 41.1444 46.1944C41.4411 46.1095 41.6852 45.916 41.8317 45.6495C42.0083 45.3286 42.0157 44.9512 41.8523 44.6141L41.852 44.6137C41.7477 44.3986 41.5818 44.2217 41.3724 44.1024L34.2737 40.0564C33.1389 39.4094 31.668 40.0052 29.9651 40.6947C27.3352 41.7589 24.0624 43.0838 21.2393 39.4513C21.0337 39.1875 20.9516 38.8468 21.0148 38.5175C21.0783 38.1881 21.2809 37.9019 21.5711 37.7323C23.5606 36.5713 25.2397 35.3049 26.5622 33.9687C26.8425 33.6854 27.1249 33.421 27.408 33.1741C26.0231 32.6584 24.809 32.9423 23.5399 33.2395C22.1498 33.5649 20.7131 33.9016 19.2227 33.0802L17.727 32.3902L13.8052 41.2635C14.5354 41.5884 14.9814 41.7825 15.1341 41.8417C16.0976 42.2156 16.4395 43.0545 16.6223 43.8284C17.5414 43.0882 18.8523 42.9223 19.9574 43.5122C20.7906 43.9569 21.3352 44.7431 21.5039 45.612C22.1138 45.5345 22.7457 45.6417 23.3119 45.9439C24.0032 46.3128 24.5019 46.9177 24.7457 47.6174C25.4623 47.4327 26.241 47.5114 26.9316 47.8799C27.6229 48.2488 28.1216 48.8535 28.3655 49.5531C29.0817 49.3684 29.8611 49.447 30.5518 49.8161C30.8978 50.001 31.1976 50.2452 31.4453 50.5425L35.1528 52.6404ZM45.0092 42.2452L41.4928 33.1749L40.3282 33.7982C38.7779 34.6049 37.3357 34.0151 35.9408 33.4449C34.0594 32.6758 32.2821 31.9496 29.6143 33.7794C29.0388 34.1727 28.4517 34.6708 27.868 35.2606C26.5916 36.5505 25.0214 37.773 23.193 38.9012C24.9047 40.6282 26.6707 40.0469 29.2761 38.9921C31.2421 38.1961 33.2753 37.3729 35.1833 38.4607L42.2822 42.5067C42.5541 42.6618 42.7975 42.8554 43.0062 43.081L45.0092 42.2452ZM50.9507 42.4183L45.5757 28.5536C45.5167 28.4015 45.3654 28.3062 45.2088 28.3062C45.1631 28.3062 45.1169 28.3142 45.0724 28.3316L42.4034 29.3663C42.2069 29.4426 42.1052 29.6731 42.1813 29.8697L47.5563 43.7344C47.6064 43.8633 47.7069 43.9236 47.7626 43.9481C47.818 43.9727 47.9308 44.0062 48.0596 43.9564L50.7286 42.9216C50.8575 42.8716 50.9178 42.771 50.9424 42.7153C50.9669 42.6596 51.0006 42.5471 50.9507 42.4183ZM44.382 29.621C43.8908 29.621 43.4926 30.0192 43.4926 30.5104C43.4926 31.0016 43.8908 31.3999 44.382 31.3999C44.8733 31.3999 45.2715 31.0016 45.2715 30.5104C45.2715 30.0192 44.8733 29.621 44.382 29.621ZM16.0938 17.4845V4.43926C16.0938 2.49758 17.6734 0.917969 19.615 0.917969H38.6791C40.6207 0.917969 42.2003 2.49758 42.2003 4.43926V9.65588C46.2212 9.71798 49.4735 13.0061 49.4735 17.0416C49.4735 21.1156 46.1591 24.4302 42.0851 24.4302C39.4691 24.4302 37.1681 23.0624 35.8548 21.0057H33.2118L29.9084 25.9029C29.7377 26.156 29.4523 26.3077 29.1471 26.3077C28.8418 26.3077 28.5564 26.156 28.3857 25.9029L25.0823 21.0057H19.615C17.6734 21.0057 16.0938 19.4262 16.0938 17.4845ZM42.0851 11.4898C39.0238 11.4898 36.5332 13.9803 36.5332 17.0416C36.5332 20.1029 39.0238 22.5934 42.0851 22.5934C45.1464 22.5934 47.6368 20.1029 47.6368 17.0416C47.6368 13.9803 45.1464 11.4898 42.0851 11.4898ZM17.9306 17.4845C17.9306 18.4133 18.6862 19.169 19.615 19.169H25.5707C25.8759 19.169 26.1613 19.3207 26.332 19.5738L29.1471 23.7471L31.9621 19.5738C32.1328 19.3207 32.4182 19.169 32.7235 19.169H35.01C34.8069 18.4949 34.6965 17.7811 34.6965 17.0417C34.6965 16.9044 34.701 16.7681 34.7084 16.6328H21.686C21.1789 16.6328 20.7677 16.2216 20.7677 15.7144C20.7677 15.2072 21.1789 14.796 21.686 14.796H35.0465C35.4054 13.674 36.0251 12.6678 36.8348 11.8492C36.7621 11.8677 36.6865 11.8786 36.6081 11.8786H21.686C21.1789 11.8786 20.7677 11.4674 20.7677 10.9602C20.7677 10.453 21.1789 10.0418 21.686 10.0418H36.6081C37.1153 10.0418 37.5265 10.453 37.5265 10.9602C37.5265 11.0726 37.5053 11.1797 37.4684 11.2792C38.3043 10.6081 39.2885 10.1154 40.3636 9.85769V4.43926C40.3636 3.51044 39.608 2.75473 38.6791 2.75473H19.615C18.6862 2.75473 17.9306 3.51044 17.9306 4.43926V17.4845ZM21.686 7.12425H36.6081C37.1153 7.12425 37.5265 6.71305 37.5265 6.20588C37.5265 5.6987 37.1153 5.2875 36.6081 5.2875H21.686C21.1789 5.2875 20.7677 5.6987 20.7677 6.20588C20.7677 6.71305 21.1789 7.12425 21.686 7.12425ZM39.6595 16.3627C39.3007 16.0042 38.7193 16.0042 38.3607 16.3627C38.0021 16.7214 38.0021 17.3028 38.3607 17.6615L40.3004 19.6012C40.4794 19.7801 40.7144 19.8702 40.95 19.8702C41.1706 19.8702 41.3916 19.7912 41.567 19.6319L45.7772 15.8113C46.1528 15.4705 46.181 14.8897 45.8401 14.5141C45.4995 14.1385 44.9186 14.1102 44.5429 14.4512L40.9806 17.6838L39.6595 16.3627Z" fill="#0A2471"/>
</svg>
