<svg width="46" height="46" viewBox="0 0 46 46" fill="none" xmlns="http://www.w3.org/2000/svg">
<g clip-path="url(#clip0_130_331)">
<path d="M38.2936 9.38082L29.7818 1.32819C28.8765 0.471654 27.6915 0 26.4452 0H10.2399C7.56278 0 5.38477 2.17801 5.38477 4.85513V40.3417C5.38477 43.0189 7.56278 45.1969 10.2399 45.1969H34.9569C37.6341 45.1969 39.8121 43.0189 39.8121 40.3417V12.9078C39.8121 11.5793 39.2586 10.2938 38.2936 9.38082ZM35.7215 10.593H29.1308C28.8874 10.593 28.6894 10.395 28.6894 10.1516V3.94025L35.7215 10.593ZM34.9569 42.5486H10.2399C9.02303 42.5486 8.03302 41.5586 8.03302 40.3417V4.85513C8.03302 3.63826 9.02303 2.64825 10.2399 2.64825H26.0412V10.1516C26.0412 11.8553 27.4272 13.2413 29.1308 13.2413H37.1638V40.3417C37.1638 41.5586 36.1738 42.5486 34.9569 42.5486Z" fill="#0A2471"/>
<path d="M32.044 17.655H12.6234C11.8922 17.655 11.2993 18.2479 11.2993 18.9792C11.2993 19.7104 11.8922 20.3033 12.6234 20.3033H32.044C32.7752 20.3033 33.3681 19.7104 33.3681 18.9792C33.3681 18.2479 32.7752 17.655 32.044 17.655Z" fill="#0A2471"/>
<path d="M32.044 24.717H12.6234C11.8922 24.717 11.2993 25.3099 11.2993 26.0412C11.2993 26.7724 11.8922 27.3653 12.6234 27.3653H32.044C32.7752 27.3653 33.3681 26.7724 33.3681 26.0412C33.3681 25.3099 32.7752 24.717 32.044 24.717Z" fill="#0A2471"/>
<path d="M19.0428 31.7791H12.6234C11.8922 31.7791 11.2993 32.3719 11.2993 33.1032C11.2993 33.8345 11.8922 34.4273 12.6234 34.4273H19.0428C19.7741 34.4273 20.3669 33.8345 20.3669 33.1032C20.3669 32.3719 19.7741 31.7791 19.0428 31.7791Z" fill="#0A2471"/>
</g>
<defs>
<clipPath id="clip0_130_331">
<rect width="45.1969" height="45.1969" fill="white"/>
</clipPath>
</defs>
</svg>
