<svg width="39" height="46" viewBox="0 0 39 46" fill="none" xmlns="http://www.w3.org/2000/svg">
<path d="M16.7476 24.4963H24.6923C26.155 24.4963 27.3406 23.3107 27.3406 21.8481V19.1998" stroke="#0A2471" stroke-width="2.64825" stroke-miterlimit="10"/>
<path d="M8.80273 12.5792H11.451C12.9136 12.5792 14.0992 13.7648 14.0992 15.2275V16.5516C14.0992 18.0142 12.9135 19.1998 11.451 19.1998C9.98845 19.1998 8.80273 18.0142 8.80273 16.5516V11.9171C8.80273 6.0668 13.5454 1.32413 19.3958 1.32413C25.2461 1.32413 29.9888 6.0668 29.9888 11.9171V16.5516C29.9888 18.0142 28.8031 19.1998 27.3405 19.1998C25.8779 19.1998 24.6923 18.0142 24.6923 16.5516V15.2275C24.6923 13.7648 25.8779 12.5792 27.3405 12.5792H29.9888" stroke="#0A2471" stroke-width="2.64825" stroke-miterlimit="10"/>
<path d="M25.9226 37.2521V34.6038C25.9226 33.1413 24.737 31.9556 23.2744 31.9556H20.3744C18.1688 31.9556 15.986 31.5802 13.8794 30.9272C13.2595 30.735 12.6005 30.6314 11.9172 30.6314C9.2026 30.6314 6.8709 32.266 5.84911 34.6038H1.32422V43.8727H26.7924L36.6649 34.0002C37.6853 32.9798 37.7478 31.3173 36.7558 30.2694C35.7266 29.1821 34.0104 29.1644 32.9587 30.2161L25.9226 37.2521ZM25.9226 37.2521H15.3296" stroke="#0A2471" stroke-width="2.64825" stroke-miterlimit="10"/>
</svg>
