<svg width="46" height="46" viewBox="0 0 46 46" fill="none" xmlns="http://www.w3.org/2000/svg">
<g clip-path="url(#clip0_128_203)">
<path d="M6.77959 34.651C6.03467 34.651 5.30647 34.8719 4.68709 35.2858C4.06771 35.6996 3.58496 36.2878 3.29989 36.9761C3.01482 37.6643 2.94023 38.4216 3.08556 39.1522C3.23088 39.8828 3.5896 40.5539 4.11634 41.0807C4.64308 41.6074 5.31419 41.9661 6.0448 42.1114C6.77541 42.2568 7.53271 42.1822 8.22093 41.8971C8.90915 41.612 9.49739 41.1293 9.91124 40.5099C10.3251 39.8905 10.546 39.1623 10.546 38.4174C10.5448 37.4189 10.1476 36.4616 9.44152 35.7555C8.73544 35.0494 7.77814 34.6522 6.77959 34.651ZM6.77959 40.6773C6.33264 40.6773 5.89572 40.5447 5.52409 40.2964C5.15246 40.0481 4.86281 39.6951 4.69177 39.2822C4.52073 38.8693 4.47597 38.4149 4.56317 37.9765C4.65037 37.5382 4.8656 37.1355 5.18164 36.8195C5.49769 36.5034 5.90035 36.2882 6.33872 36.201C6.77709 36.1138 7.23146 36.1585 7.6444 36.3296C8.05733 36.5006 8.41027 36.7903 8.65858 37.1619C8.9069 37.5335 9.03944 37.9705 9.03944 38.4174C9.03944 39.0168 8.80135 39.5916 8.37754 40.0154C7.95374 40.4392 7.37894 40.6773 6.77959 40.6773Z" fill="#0A2471"/>
<path d="M10.2577 9.87255C10.2227 9.95969 10.1706 10.039 10.1045 10.1057C10.0384 10.1724 9.95961 10.2253 9.87281 10.2612L7.64084 11.2164C7.50121 11.277 7.34671 11.2947 7.197 11.2672C7.04729 11.2397 6.90916 11.1682 6.80018 11.062L2.64207 6.90236C2.44635 6.70584 2.19957 6.56798 1.92961 6.50435C1.65966 6.44073 1.37729 6.45387 1.11441 6.54229C0.846178 6.63007 0.607994 6.79143 0.427001 7.00798C0.246007 7.22453 0.129481 7.48757 0.0907015 7.76713C-0.11446 9.1546 0.0100182 10.5709 0.454057 11.9013C0.898097 13.2317 1.64921 14.4389 2.64659 15.425C3.76474 16.5518 5.16148 17.3623 6.69465 17.7739C8.22781 18.1856 9.84266 18.1837 11.3749 17.7684L16.2087 22.5985L7.15648 31.6514C6.2036 31.5945 5.24951 31.7408 4.35754 32.0809C3.46557 32.4209 2.65613 32.9467 1.98294 33.6235C1.35355 34.2533 0.854367 35.0009 0.513893 35.8236C0.173419 36.6463 -0.00167619 37.528 -0.0013964 38.4184C-0.00111661 39.3088 0.174533 40.1904 0.515524 41.0129C0.856515 41.8354 1.35617 42.5826 1.98596 43.212C2.61575 43.8414 3.36334 44.3406 4.18604 44.6811C5.00875 45.0216 5.89046 45.1967 6.78084 45.1964C7.67122 45.1961 8.55282 45.0204 9.37531 44.6795C10.1978 44.3385 10.9451 43.8388 11.5745 43.209C12.2521 42.5377 12.7787 41.7294 13.1191 40.8383C13.4594 39.9472 13.6057 38.9937 13.5481 38.0415L22.5987 28.9901L37.4798 43.8764C38.3289 44.7203 39.4774 45.194 40.6745 45.194C41.8716 45.194 43.0201 44.7203 43.8692 43.8764C44.7025 43.0211 45.1689 41.8741 45.1689 40.6799C45.1689 39.4857 44.7025 38.3387 43.8692 37.4833L28.9903 22.5985L33.8226 17.7699C35.2659 18.1557 36.7823 18.1777 38.2362 17.834C39.69 17.4903 41.036 16.7917 42.1538 15.8005C43.2716 14.8094 44.1263 13.5566 44.6415 12.1543C45.1567 10.752 45.3163 9.24393 45.106 7.76487C45.0669 7.48581 44.9503 7.22331 44.7695 7.0072C44.5887 6.79108 44.3509 6.63002 44.0831 6.54229C43.82 6.4539 43.5374 6.44092 43.2673 6.50482C42.9971 6.56872 42.7503 6.70695 42.5547 6.90387L38.3973 11.0627C38.2892 11.1689 38.152 11.2405 38.0031 11.2684C37.8542 11.2963 37.7004 11.2793 37.5612 11.2194L35.3232 10.2612C35.2355 10.2245 35.1561 10.1705 35.0896 10.1026C35.0231 10.0347 34.9709 9.95418 34.936 9.86577L33.9733 7.63832C33.9139 7.49872 33.8973 7.34459 33.9258 7.19556C33.9542 7.04653 34.0263 6.90933 34.133 6.80142L38.2911 2.64406C38.4875 2.44658 38.6253 2.19853 38.6892 1.92746C38.7531 1.6564 38.7406 1.37293 38.6531 1.10853C38.5656 0.844129 38.4066 0.609153 38.1936 0.429697C37.9806 0.25024 37.7221 0.133327 37.4467 0.0919416C35.8151 -0.13947 34.1514 0.0774475 32.6337 0.719446C31.116 1.36145 29.8016 2.40432 28.8314 3.73632C28.0399 4.82288 27.5035 6.07381 27.2618 7.39616C27.0202 8.71852 27.0796 10.0783 27.4356 11.3746L22.5987 16.2084L17.7619 11.3746C18.1178 10.0785 18.1772 8.71887 17.9357 7.39668C17.6942 6.07448 17.158 4.82366 16.3669 3.73707C15.3957 2.40458 14.0803 1.36146 12.5615 0.719462C11.0428 0.0774687 9.37801 -0.139192 7.74555 0.0926949C7.47057 0.13451 7.21254 0.251629 7.00003 0.43108C6.78752 0.61053 6.62884 0.845305 6.54157 1.1094C6.45429 1.37349 6.44183 1.65658 6.50555 1.92732C6.56928 2.19806 6.70671 2.44587 6.90263 2.64331L11.0607 6.79991C11.1667 6.90648 11.2389 7.04194 11.2682 7.18933C11.2976 7.33672 11.2828 7.4895 11.2257 7.62852L10.2577 9.87255ZM42.804 38.5492C43.3503 39.124 43.6549 39.8866 43.6549 40.6795C43.6549 41.4724 43.3503 42.235 42.804 42.8098C42.2378 43.3724 41.472 43.6883 40.6737 43.6883C39.8755 43.6883 39.1097 43.3724 38.5435 42.8098L23.6646 27.9249L25.2624 26.3272L38.2617 39.3266C38.4038 39.4638 38.5941 39.5397 38.7916 39.538C38.9891 39.5363 39.178 39.4571 39.3177 39.3174C39.4574 39.1778 39.5366 38.9888 39.5383 38.7913C39.54 38.5938 39.4641 38.4035 39.3269 38.2615L26.3275 25.2621L27.9252 23.6644C42.5426 38.2886 42.804 38.5492 42.804 38.5492ZM29.0016 11.352C28.6292 10.2287 28.5298 9.03285 28.7114 7.86347C28.8931 6.69408 29.3508 5.58479 30.0464 4.62745C30.8554 3.51651 31.9511 2.64631 33.2163 2.10988C34.4816 1.57345 35.8688 1.39097 37.2297 1.58193L33.0694 5.73628C32.751 6.05578 32.5351 6.46292 32.4493 6.90568C32.3634 7.34845 32.4114 7.80677 32.5873 8.22211L33.5469 10.4496C33.7685 10.988 34.1934 11.4173 34.7296 11.6443L36.9714 12.6032C37.3865 12.7816 37.8456 12.8315 38.2894 12.7464C38.7332 12.6612 39.1413 12.445 39.4609 12.1256L43.6153 7.97955C43.7948 9.24491 43.6495 10.5351 43.1929 11.7288C42.7363 12.9225 41.9836 13.9805 41.0054 14.803C40.0273 15.6256 38.8559 16.1858 37.6016 16.4308C36.3473 16.6759 35.0513 16.5978 33.8354 16.2039C33.7034 16.1611 33.5622 16.1557 33.4273 16.1881C33.2924 16.2205 33.169 16.2896 33.0709 16.3877L12.2359 37.2234C12.156 37.3033 12.0951 37.4 12.0577 37.5065C12.0203 37.6131 12.0073 37.7266 12.0197 37.8389C12.1106 38.6234 12.0222 39.4184 11.7612 40.1639C11.5003 40.9093 11.0735 41.5858 10.5131 42.1424C9.88312 42.7741 9.10315 43.2357 8.2462 43.4838C7.38925 43.732 6.48333 43.7587 5.61326 43.5614C4.74318 43.3641 3.9374 42.9493 3.27132 42.3557C2.60524 41.7621 2.10066 41.0093 1.8048 40.1676C1.50894 39.3259 1.43147 38.423 1.57966 37.5432C1.72784 36.6634 2.09683 35.8356 2.65208 35.1373C3.20733 34.439 3.93069 33.8929 4.75445 33.5503C5.5782 33.2077 6.47543 33.0797 7.36213 33.1783C7.47429 33.1897 7.58758 33.1762 7.69395 33.1389C7.80032 33.1015 7.89715 33.0411 7.97756 32.9621L20.4557 20.4825C20.4602 20.478 20.467 20.4765 20.4722 20.472C20.4775 20.4674 20.4783 20.4599 20.4828 20.4554L28.8186 12.1196C28.9171 12.0211 28.9864 11.8972 29.0187 11.7617C29.051 11.6262 29.0451 11.4844 29.0016 11.352ZM12.1281 5.73553L7.964 1.58193C9.22996 1.39615 10.5224 1.53675 11.7188 1.99042C12.9152 2.44409 13.9759 3.19578 14.8004 4.17425C15.6249 5.15273 16.1858 6.32555 16.43 7.58155C16.6742 8.83755 16.5936 10.1351 16.1959 11.3512C16.1524 11.4836 16.1465 11.6254 16.1788 11.7609C16.2111 11.8964 16.2804 12.0203 16.3789 12.1188L21.5344 17.2735L19.9367 18.8712L17.0297 15.9643C16.9603 15.8924 16.8771 15.835 16.7852 15.7955C16.6933 15.756 16.5945 15.7353 16.4945 15.7344C16.3944 15.7335 16.2952 15.7526 16.2027 15.7905C16.1101 15.8283 16.026 15.8843 15.9553 15.955C15.8845 16.0257 15.8286 16.1098 15.7907 16.2024C15.7529 16.295 15.7338 16.3942 15.7347 16.4942C15.7355 16.5942 15.7563 16.6931 15.7958 16.785C15.8353 16.8769 15.8927 16.96 15.9646 17.0295L18.8715 19.9364L17.2738 21.5341L12.1281 16.3869C12.03 16.2888 11.9067 16.2198 11.7717 16.1873C11.6368 16.1549 11.4956 16.1604 11.3636 16.2031C10.1465 16.5965 8.84947 16.6739 7.59431 16.4281C6.33915 16.1822 5.16715 15.6211 4.18853 14.7976C3.20991 13.9741 2.45682 12.9152 2.00009 11.7205C1.54336 10.5258 1.398 9.23458 1.57768 7.96825L5.73579 12.1279C6.05649 12.4469 6.46538 12.6626 6.90976 12.7472C7.35414 12.8318 7.81368 12.7814 8.22915 12.6024L10.4649 11.6465C10.9981 11.421 11.4217 10.9953 11.6445 10.4609L12.614 8.21081C12.7867 7.79638 12.8326 7.34009 12.7462 6.89954C12.6597 6.45899 12.4446 6.05394 12.1281 5.73553Z" fill="#0A2471"/>
<path d="M28.1726 15.9613L12.6391 31.4933C12.5672 31.5627 12.5098 31.6459 12.4703 31.7378C12.4309 31.8297 12.4101 31.9285 12.4092 32.0285C12.4083 32.1286 12.4274 32.2277 12.4653 32.3203C12.5031 32.4129 12.5591 32.497 12.6298 32.5677C12.7005 32.6385 12.7846 32.6944 12.8772 32.7323C12.9698 32.7701 13.069 32.7892 13.169 32.7883C13.269 32.7875 13.3679 32.7667 13.4598 32.7272C13.5517 32.6877 13.6348 32.6303 13.7043 32.5584L29.2354 17.0242C29.3611 16.8804 29.4274 16.6942 29.421 16.5033C29.4145 16.3124 29.3358 16.1311 29.2008 15.996C29.0657 15.861 28.8844 15.7823 28.6935 15.7758C28.5026 15.7694 28.3164 15.8357 28.1726 15.9613Z" fill="#0A2471"/>
</g>
<defs>
<clipPath id="clip0_128_203">
<rect width="45.1969" height="45.1969" fill="white"/>
</clipPath>
</defs>
</svg>
