<svg width="49" height="49" viewBox="0 0 49 49" fill="none" xmlns="http://www.w3.org/2000/svg">
<g clip-path="url(#clip0_130_383)">
<path d="M24.2735 11.429C17.1912 11.429 11.4292 17.1909 11.4292 24.2733C11.4292 31.3557 17.1912 37.1176 24.2735 37.1176C31.3559 37.1176 37.1179 31.3557 37.1179 24.2733C37.1178 17.1909 31.3559 11.429 24.2735 11.429ZM19.9921 33.2981V32.8362C19.9921 30.4755 21.9127 28.5548 24.2735 28.5548C26.6344 28.5548 28.555 30.4755 28.555 32.8362V33.2981C25.8519 34.5855 22.6955 34.5858 19.9921 33.2981ZM22.8464 24.2733C22.8464 23.4863 23.4866 22.8461 24.2735 22.8461C25.0605 22.8461 25.7007 23.4863 25.7007 24.2733C25.7007 25.0603 25.0605 25.7004 24.2735 25.7004C23.4866 25.7004 22.8464 25.0603 22.8464 24.2733ZM31.2644 31.4021C30.849 29.3742 29.5696 27.6585 27.8301 26.6539C28.2876 25.9729 28.5549 25.1537 28.5549 24.2733C28.5549 21.9126 26.6343 19.9918 24.2734 19.9918C21.9126 19.9918 19.992 21.9126 19.992 24.2733C19.992 25.1537 20.2594 25.9728 20.7169 26.6539C18.9775 27.6586 17.698 29.3742 17.2826 31.4021C15.433 29.588 14.2834 27.0626 14.2834 24.2733C14.2834 18.7648 18.7649 14.2832 24.2734 14.2832C29.782 14.2832 34.2635 18.7648 34.2635 24.2733C34.2635 27.0626 33.114 29.5879 31.2644 31.4021Z" fill="#0A2471"/>
<path d="M45.6846 24.55C45.6499 27.3006 45.0877 29.9937 44.0137 32.5539C39.4475 43.4388 26.8769 48.5794 15.992 44.0134C14.1669 43.2476 12.4812 42.2506 10.956 41.0398L14.7002 39.7478L13.769 37.0495L6.73389 39.4775L6.91742 47.1393L9.77085 47.0708L9.68941 43.6682C16.2368 48.5867 25.1796 50.1138 33.4566 46.729C42.9137 42.8615 48.4219 33.8544 48.5387 24.5861L45.6846 24.55Z" fill="#0A2471"/>
<path d="M32.554 4.53249C34.379 5.2981 36.0646 6.29501 37.5899 7.50589L33.8457 8.79812L34.7768 11.4962L41.8119 9.06823L41.6285 1.40666L38.7749 1.47507L38.8565 4.87776C32.323 -0.0305702 23.3795 -1.57322 15.0894 1.81682C5.63199 5.68438 0.12416 14.6916 0.00732422 23.9598L2.86142 23.9957C2.89605 21.2451 3.45816 18.5522 4.53223 15.9918C9.09861 5.10686 21.6694 -0.0336149 32.554 4.53249Z" fill="#0A2471"/>
</g>
<defs>
<clipPath id="clip0_130_383">
<rect width="48.5463" height="48.5463" fill="white"/>
</clipPath>
</defs>
</svg>
