<svg width="46" height="46" viewBox="0 0 46 46" fill="none" xmlns="http://www.w3.org/2000/svg">
<path d="M8.20904 43.7845H36.9882C38.2706 43.7845 39.3144 42.7408 39.3144 41.4583V6.92579C39.3144 5.63697 38.2706 4.58897 36.9882 4.58897H30.2962C30.1684 3.69986 29.4134 3.02261 28.5024 3.02261H25.148C24.696 2.06218 23.7073 1.41248 22.6057 1.41248C21.4899 1.41248 20.5153 2.05512 20.0633 3.02261H16.7159C15.7986 3.02261 15.0359 3.69986 14.9088 4.58897H8.20904C6.92658 4.58897 5.88281 5.63697 5.88281 6.92579V41.4583C5.88281 42.7408 6.92658 43.7845 8.20904 43.7845ZM34.1309 9.18775V38.2903H11.0663V9.18775H34.1309ZM7.29522 6.92579C7.29522 6.41591 7.70481 6.00137 8.20904 6.00137H14.8869V7.36575C14.8869 7.50699 14.901 7.64117 14.9363 7.77535H10.3601C9.96466 7.77535 9.65393 8.09314 9.65393 8.48155V38.9965C9.65393 39.3849 9.96466 39.7027 10.3601 39.7027H34.8371C35.2325 39.7027 35.5433 39.3849 35.5433 38.9965V8.48155C35.5433 8.09314 35.2325 7.77535 34.8371 7.77535H30.2679C30.3033 7.64117 30.3174 7.50699 30.3174 7.36575V6.00137H36.9882C37.4924 6.00137 37.902 6.41591 37.902 6.92579V41.4583C37.902 41.9618 37.4924 42.3721 36.9882 42.3721H8.20904C7.70481 42.3721 7.29522 41.9618 7.29522 41.4583V6.92579Z" fill="#0A2471"/>
<path d="M14.6105 22.8507H17.7503C18.1408 22.8507 18.4565 22.5343 18.4565 22.1445V19.0054C18.4565 18.6156 18.1408 18.2992 17.7503 18.2992H14.6105C14.22 18.2992 13.9043 18.6156 13.9043 19.0054V22.1445C13.9043 22.5343 14.22 22.8507 14.6105 22.8507ZM15.3167 19.7116H17.0441V21.4383H15.3167V19.7116Z" fill="#0A2471"/>
<path d="M14.6105 34.5778H17.7503C18.1408 34.5778 18.4565 34.2615 18.4565 33.8716V30.7326C18.4565 30.3427 18.1408 30.0264 17.7503 30.0264H14.6105C14.22 30.0264 13.9043 30.3427 13.9043 30.7326V33.8716C13.9043 34.2615 14.22 34.5778 14.6105 34.5778ZM15.3167 31.4388H17.0441V33.1654H15.3167V31.4388Z" fill="#0A2471"/>
<path d="M14.6105 28.7143H17.7503C18.1408 28.7143 18.4565 28.3979 18.4565 28.0081V24.8683C18.4565 24.4785 18.1408 24.1621 17.7503 24.1621H14.6105C14.22 24.1621 13.9043 24.4785 13.9043 24.8683V28.0081C13.9043 28.3979 14.22 28.7143 14.6105 28.7143ZM15.3167 25.5745H17.0441V27.3019H15.3167V25.5745Z" fill="#0A2471"/>
<path d="M14.6105 16.987H17.7503C18.1408 16.987 18.4565 16.6706 18.4565 16.2808V13.141C18.4565 12.7512 18.1408 12.4348 17.7503 12.4348H14.6105C14.22 12.4348 13.9043 12.7512 13.9043 13.141V16.2808C13.9043 16.6706 14.22 16.987 14.6105 16.987ZM15.3167 13.8472H17.0441V15.5746H15.3167V13.8472Z" fill="#0A2471"/>
<path d="M20.9118 15.4178H30.877C31.2675 15.4178 31.5832 15.1014 31.5832 14.7116C31.5832 14.3217 31.2675 14.0054 30.877 14.0054H20.9118C20.5212 14.0054 20.2056 14.3217 20.2056 14.7116C20.2056 15.1014 20.5212 15.4178 20.9118 15.4178Z" fill="#0A2471"/>
<path d="M20.9118 21.2808H30.877C31.2675 21.2808 31.5832 20.9644 31.5832 20.5746C31.5832 20.1848 31.2675 19.8684 30.877 19.8684H20.9118C20.5212 19.8684 20.2056 20.1848 20.2056 20.5746C20.2056 20.9644 20.5212 21.2808 20.9118 21.2808Z" fill="#0A2471"/>
<path d="M20.9118 27.1443H30.877C31.2675 27.1443 31.5832 26.828 31.5832 26.4381C31.5832 26.0483 31.2675 25.7319 30.877 25.7319H20.9118C20.5212 25.7319 20.2056 26.0483 20.2056 26.4381C20.2056 26.828 20.5212 27.1443 20.9118 27.1443Z" fill="#0A2471"/>
<path d="M20.9118 33.0079H30.877C31.2675 33.0079 31.5832 32.6915 31.5832 32.3017C31.5832 31.9118 31.2675 31.5955 30.877 31.5955H20.9118C20.5212 31.5955 20.2056 31.9118 20.2056 32.3017C20.2056 32.6915 20.5212 33.0079 20.9118 33.0079Z" fill="#0A2471"/>
</svg>
