<svg width="33" height="45" viewBox="0 0 33 45" fill="none" xmlns="http://www.w3.org/2000/svg">
<g clip-path="url(#clip0_128_207)">
<path d="M13.3616 44.5376H19.3C20.5299 44.5376 21.5269 43.5406 21.5269 42.3107V40.6896C22.4135 40.3761 23.0076 39.5396 23.0115 38.5992V36.9781C23.8981 36.6646 24.4922 35.8281 24.4961 34.8878V34.5864C24.4843 32.2861 25.4568 30.0906 27.1684 28.5537C32.2424 24.0544 34.0077 16.8874 31.6037 10.5462C29.1998 4.20505 23.127 0.00945636 16.3454 0.00458189C9.56385 -0.000292586 3.48498 4.18657 1.07194 10.5243C-1.34111 16.862 0.41387 24.0316 5.48142 28.5382C7.19733 30.0795 8.17384 32.2799 8.16557 34.5864V34.8878C8.16947 35.8281 8.7636 36.6646 9.65016 36.9781V38.5992C9.65406 39.5396 10.2482 40.3761 11.1348 40.6896V42.3107C11.1348 42.9013 11.3694 43.4678 11.787 43.8854C12.2046 44.303 12.771 44.5376 13.3616 44.5376ZM20.0423 42.3107C20.0423 42.7207 19.71 43.053 19.3 43.053H13.3616C12.9517 43.053 12.6193 42.7207 12.6193 42.3107V40.8261H20.0423V42.3107ZM21.5269 38.5992C21.5269 39.0092 21.1946 39.3415 20.7846 39.3415H11.8771C11.4671 39.3415 11.1348 39.0092 11.1348 38.5992V37.1147H21.5269V38.5992ZM6.46645 27.4292C3.30005 24.6086 1.48776 20.5708 1.4849 16.3304C1.4849 8.13436 8.12667 1.48893 16.3227 1.48443C16.5899 1.48443 16.8579 1.49135 17.1266 1.50521C24.8916 2.01805 30.9844 8.36739 31.1768 16.147C31.2292 20.4587 29.4066 24.5807 26.1818 27.4433C24.1536 29.2624 22.9999 31.8619 23.0115 34.5864V34.8878C23.0115 35.2977 22.6792 35.6301 22.2692 35.6301H10.3925C9.9825 35.6301 9.65016 35.2977 9.65016 34.8878V34.5864C9.65736 31.856 8.49914 29.2522 6.46645 27.4292Z" fill="#0A2471"/>
<path d="M15.5876 4.4753H15.6322C15.8628 4.46095 16.0954 4.45377 16.3299 4.45377C16.7399 4.45377 17.0722 4.12143 17.0722 3.71147C17.0722 3.30151 16.7399 2.96918 16.3299 2.96918C16.0664 2.96918 15.8044 2.97734 15.5438 2.99219C15.1339 3.00408 14.8112 3.34605 14.8231 3.75601C14.835 4.16597 15.1769 4.48867 15.5869 4.47678L15.5876 4.4753Z" fill="#0A2471"/>
<path d="M13.3287 4.04928C13.2707 3.86102 13.1402 3.70353 12.9661 3.6115C12.7919 3.51947 12.5883 3.50045 12.4001 3.55862C7.90006 4.9563 4.46185 8.6103 3.34034 13.1869C3.24395 13.5852 3.48849 13.9862 3.88667 14.0829C3.94428 14.0968 4.00333 14.1037 4.06259 14.1037C4.4048 14.103 4.7022 13.8685 4.78262 13.5358C5.78123 9.46667 8.8398 6.21879 12.8417 4.97789C13.2323 4.85553 13.4501 4.44013 13.3287 4.04928Z" fill="#0A2471"/>
<path d="M28.9497 17.0728C29.3597 17.0728 29.692 16.7405 29.692 16.3305C29.692 16.0677 29.6839 15.8057 29.669 15.5444C29.6448 15.1345 29.2929 14.8217 28.8829 14.8459C28.473 14.8701 28.1602 15.2221 28.1844 15.632C28.1998 15.8636 28.2074 16.0964 28.2074 16.3305C28.2074 16.7405 28.5398 17.0728 28.9497 17.0728Z" fill="#0A2471"/>
<path d="M20.8208 33.3937C20.8603 33.4002 20.9003 33.4034 20.9404 33.4034C21.3042 33.403 21.6141 33.139 21.6723 32.7798C21.7489 32.3096 21.8553 31.8448 21.9907 31.388C22.5658 29.4376 23.6753 27.687 25.1937 26.3345C25.2237 26.3078 25.2515 26.2787 25.2768 26.2476C27.2805 24.4521 28.6909 22.0898 29.3209 19.4742C29.3927 19.2132 29.3167 18.9338 29.1226 18.7451C28.9285 18.5564 28.6471 18.4883 28.3882 18.5675C28.1293 18.6466 27.934 18.8603 27.8786 19.1253C27.2897 21.5673 25.9376 23.758 24.0187 25.3791C23.9705 25.4197 23.9278 25.4663 23.8917 25.518C22.3284 27.0126 21.1836 28.8905 20.5714 30.9649C20.4172 31.4824 20.2964 32.0093 20.2099 32.5423C20.1443 32.9459 20.4174 33.3266 20.8208 33.3937Z" fill="#0A2471"/>
</g>
<defs>
<clipPath id="clip0_128_207">
<rect width="32.661" height="44.5378" fill="white"/>
</clipPath>
</defs>
</svg>
