<svg width="46" height="46" viewBox="0 0 46 46" fill="none" xmlns="http://www.w3.org/2000/svg">
<g clip-path="url(#clip0_128_281)">
<path d="M14.275 14.6662C14.336 13.9672 14.8986 13.4162 15.5978 13.3579L17.3943 13.2082C17.7091 11.7562 18.2835 10.4035 19.0625 9.1932L17.8946 7.81293C17.4414 7.27736 17.4332 6.48986 17.8843 5.95244C18.1293 5.66051 18.3873 5.37591 18.662 5.1012C18.9367 4.82649 19.2213 4.56855 19.5132 4.3235C20.0505 3.87241 20.838 3.88053 21.3737 4.33374L22.754 5.50171C23.9643 4.72285 25.317 4.14845 26.769 3.83357L26.9187 2.03699C26.977 1.33777 27.528 0.775102 28.2269 0.714192C28.6068 0.681 28.9905 0.662109 29.3789 0.662109C29.7674 0.662109 30.1512 0.681 30.5308 0.714103C31.2298 0.775102 31.7808 1.33768 31.8391 2.03691L31.9888 3.83348C33.4408 4.14827 34.7936 4.72268 36.0038 5.50162L37.3841 4.33365C37.9196 3.88044 38.7071 3.87224 39.2446 4.32341C39.5365 4.56846 39.8211 4.8264 40.0958 5.10111C40.3705 5.37583 40.6285 5.66042 40.8735 5.95235C41.3246 6.48968 41.3165 7.27718 40.8632 7.81284L39.6953 9.19311C40.4741 10.4034 41.0486 11.7562 41.3634 13.2081L43.16 13.3578C43.8591 13.4161 44.4218 13.9671 44.4828 14.6661C44.5159 15.0458 44.5348 15.4295 44.5348 15.818C44.5348 16.2065 44.5159 16.5901 44.4828 16.9698C44.4218 17.6688 43.8591 18.2198 43.16 18.278L41.3634 18.4277C41.0486 19.8798 40.4742 21.2325 39.6953 22.4428L40.8632 23.8229C41.3164 24.3585 41.3246 25.1461 40.8735 25.6834C40.6285 25.9753 40.3704 26.26 40.0958 26.5347C39.8211 26.8094 39.5365 27.0673 39.2446 27.3124C38.7072 27.7635 37.9197 27.7553 37.3841 27.302L36.0038 26.1342C34.7935 26.913 33.4407 27.4874 31.9888 27.8023L31.8391 29.5989C31.7808 30.2981 31.2298 30.8608 30.5308 30.9217C30.1512 30.9548 29.7674 30.9737 29.3789 30.9737C28.9904 30.9737 28.6067 30.9548 28.2271 30.9217C27.5282 30.8607 26.9771 30.2981 26.9189 29.5989L26.7692 27.8023C25.3172 27.4875 23.9644 26.9131 22.7541 26.1342L21.3739 27.302C20.8383 27.7553 20.0508 27.7635 19.5134 27.3124C19.2215 27.0673 18.9369 26.8093 18.6622 26.5347C18.3874 26.26 18.1295 25.9753 17.8844 25.6834C17.4334 25.1461 17.4415 24.3585 17.8948 23.8229L19.0627 22.4428C18.2838 21.2324 17.7094 19.8797 17.3945 18.4277L15.5979 18.278C14.8988 18.2198 14.3361 17.6688 14.2751 16.9698C14.242 16.5901 14.2231 16.2064 14.2231 15.818C14.2231 15.4296 14.2419 15.0459 14.275 14.6662Z" stroke="#0A2471" stroke-width="1.32413" stroke-miterlimit="10" stroke-linecap="round" stroke-linejoin="round"/>
<path d="M12.0578 37.4693C14.4493 37.4693 16.388 35.5306 16.388 33.1391C16.388 30.7476 14.4493 28.8088 12.0578 28.8088C9.66626 28.8088 7.72754 30.7476 7.72754 33.1391C7.72754 35.5306 9.66626 37.4693 12.0578 37.4693Z" stroke="#0A2471" stroke-width="1.32413" stroke-miterlimit="10" stroke-linecap="round" stroke-linejoin="round"/>
<path d="M23.0798 29.6961C23.1267 29.8459 23.1707 29.9974 23.2118 30.1505C23.3016 30.4854 23.3749 30.8207 23.433 31.1558C23.5544 31.8561 23.1284 32.5376 22.4531 32.7594L20.7093 33.332C20.6789 34.7028 20.3261 36.0655 19.6487 37.3003L20.8705 38.6657C21.3444 39.1954 21.3727 39.9986 20.9173 40.5444C20.6996 40.8055 20.4683 41.0593 20.2231 41.3044C19.978 41.5496 19.7243 41.7807 19.4631 41.9986C18.9173 42.4539 18.1141 42.4257 17.5844 41.9517L16.219 40.73C14.9842 41.4074 13.6215 41.7603 12.2507 41.7905L11.6781 43.5343C11.4564 44.2096 10.7749 44.6357 10.0745 44.5143C9.7394 44.4562 9.40413 44.3828 9.06921 44.2931C8.73439 44.2033 8.40724 44.0992 8.08804 43.982C7.42085 43.7369 7.04365 43.0273 7.18931 42.3315L7.56545 40.534C6.98592 40.1815 6.43491 39.7639 5.93395 39.263C5.43298 38.7621 5.01553 38.2111 4.66296 37.6315L2.8655 38.0079C2.16972 38.1535 1.46007 37.7763 1.21502 37.1091C1.09779 36.7899 0.993714 36.4628 0.903938 36.128C0.814163 35.7931 0.740806 35.4578 0.682721 35.1227C0.561343 34.4223 0.987358 33.7408 1.66266 33.5192L3.40645 32.9465C3.43682 31.5758 3.78957 30.213 4.46699 28.9783L3.24526 27.6128C2.77131 27.0831 2.74306 26.28 3.19839 25.7341C3.41616 25.473 3.64744 25.2193 3.89258 24.9741C4.13772 24.729 4.39142 24.4977 4.65254 24.2799C5.19835 23.8246 6.00156 23.8529 6.5313 24.3268L7.89674 25.5485C9.13154 24.8711 10.4942 24.5183 11.865 24.488L12.4376 22.7442C12.6594 22.0689 13.3408 21.6429 14.0411 21.7643C14.3762 21.8223 14.7115 21.8957 15.0464 21.9855C15.199 22.0264 15.35 22.0702 15.4994 22.117" stroke="#0A2471" stroke-width="1.32413" stroke-miterlimit="10" stroke-linecap="round" stroke-linejoin="round"/>
<path d="M24.8812 9.27914C26.16 8.3978 27.7082 7.87927 29.3788 7.87927C33.7633 7.87927 37.3176 11.4336 37.3176 15.8181C37.3176 20.2027 33.7633 23.757 29.3788 23.757C24.9943 23.757 21.4399 20.2027 21.4399 15.8181C21.4399 14.1475 21.9585 12.5993 22.8398 11.3205" stroke="#0A2471" stroke-width="1.32413" stroke-miterlimit="10" stroke-linecap="round" stroke-linejoin="round"/>
</g>
<defs>
<clipPath id="clip0_128_281">
<rect width="45.1969" height="45.1969" fill="white"/>
</clipPath>
</defs>
</svg>
