<svg width="52" height="52" viewBox="0 0 52 52" fill="none" xmlns="http://www.w3.org/2000/svg">
<path d="M13.1869 27.4432C13.2817 27.4432 13.3852 27.4346 13.4801 27.426L15.5845 27.15C15.688 27.1327 15.7828 27.1069 15.8777 27.081C17.9131 30.6343 21.7424 32.8853 25.8735 32.8853C30.0047 32.8853 33.834 30.6343 35.8694 27.081C35.9642 27.1069 36.0677 27.1327 36.1712 27.15L38.2756 27.426C38.3705 27.4346 38.474 27.4432 38.5688 27.4432C39.6986 27.4432 40.6818 26.598 40.8285 25.451L41.7772 18.1029C41.941 16.8523 41.0527 15.7053 39.8021 15.5414L39.0863 15.4465C37.991 9.06437 32.4282 4.31226 25.8735 4.31226C19.3189 4.31226 13.7561 9.06437 12.6521 15.4551L11.9449 15.55C10.6944 15.7139 9.81466 16.8609 9.9699 18.1029L10.9186 25.451C11.0738 26.6067 12.057 27.4432 13.1869 27.4432ZM34.4894 26.0202C32.799 29.1595 29.47 31.1604 25.8735 31.1604C22.2857 31.1604 18.9567 29.1595 17.2663 26.0202C17.5164 25.589 17.6199 25.0974 17.5595 24.5971L16.7057 17.9563C18.1115 14.127 21.7769 11.5741 25.8822 11.5741C29.9961 11.5741 33.6529 14.1356 35.0586 17.9735L34.2048 24.6058C34.1272 25.0974 34.2393 25.589 34.4894 26.0202ZM39.5865 17.2577C39.8884 17.3008 40.1126 17.5768 40.0695 17.8873L39.1208 25.2354C39.0777 25.5372 38.8017 25.7615 38.4912 25.7183L36.3868 25.4423C36.2402 25.4251 36.1108 25.3475 36.016 25.2267C35.9211 25.106 35.8866 24.9594 35.9039 24.8128L36.8525 17.4647C36.8957 17.1628 37.1803 16.9472 37.4821 16.9817L39.5865 17.2577ZM25.8735 6.03716C31.4277 6.03716 36.1626 9.93545 37.3096 15.2654C36.8008 15.2827 36.3265 15.481 35.947 15.7915C33.9547 12.1692 30.1168 9.84058 25.8649 9.84058C21.6216 9.84058 17.7837 12.1692 15.7915 15.7829C15.412 15.4724 14.9376 15.2827 14.4288 15.2654C15.5845 9.93545 20.3193 6.03716 25.8735 6.03716ZM12.1692 17.2577L14.2735 16.9903C14.2994 16.9903 14.3253 16.9817 14.3425 16.9817C14.6185 16.9817 14.86 17.1887 14.8945 17.4733L15.8432 24.8214C15.8605 24.968 15.826 25.1146 15.7311 25.2354C15.6362 25.3561 15.5068 25.4251 15.3602 25.451L13.2558 25.727C13.1092 25.7442 12.9626 25.7097 12.8419 25.6148C12.7211 25.52 12.6435 25.3906 12.6263 25.244L11.6776 17.8959C11.6431 17.5768 11.8587 17.3008 12.1692 17.2577Z" fill="#0A2471"/>
<path d="M7.29605 47.4349H44.4505C44.9249 47.4349 45.313 47.0468 45.313 46.5725C45.313 40.6819 39.9054 35.5158 31.8501 33.7133C31.669 33.6702 31.4792 33.6874 31.3154 33.765C27.8397 35.3002 23.9069 35.3002 20.4226 33.765C20.2501 33.6874 20.069 33.6702 19.8879 33.7133C11.8412 35.5158 6.43359 40.6819 6.43359 46.5725C6.43359 47.0468 6.8217 47.4349 7.29605 47.4349ZM20 35.4641C23.7603 37.0424 27.9863 37.0424 31.7466 35.4641C38.4306 37.0337 43.0275 41.07 43.5363 45.71H8.20162C8.71909 41.07 13.316 37.0337 20 35.4641Z" fill="#0A2471"/>
</svg>
