<svg width="55" height="55" viewBox="0 0 55 55" fill="none" xmlns="http://www.w3.org/2000/svg">
<g clip-path="url(#clip0_130_350)">
<path d="M56.1546 16.6724L27.392 4.72095L-1.37061 16.6724L5.39915 19.4853V34.7127C6.41537 35.6965 7.66663 36.7847 8.86576 37.6612C8.81284 37.9544 8.78374 38.2557 8.78374 38.5638C8.78374 40.7685 10.1989 42.6482 12.1683 43.3445V45.3329C12.1683 46.27 11.406 47.0323 10.469 47.0323V50.4028C13.2646 50.4028 15.5389 48.1285 15.5389 45.3329V43.3445C16.2727 43.0851 16.9293 42.6617 17.4647 42.1179C20.6807 43.1897 24.0363 43.7265 27.392 43.7265C35.2866 43.757 43.3671 40.6534 49.3848 34.7127V19.4853L56.1546 16.6724ZM27.392 8.37092L47.3705 16.6725L27.392 24.9739L7.4135 16.6724L27.392 8.37092ZM8.7697 20.8859L12.1683 22.298V33.7831C11.5726 33.9937 11.0281 34.3127 10.5577 34.7163C9.94658 34.2542 9.34921 33.7654 8.7697 33.246V20.8859ZM13.8536 40.2632C12.9166 40.2632 12.1543 39.5009 12.1543 38.5639C12.1543 37.6269 12.9166 36.8645 13.8536 36.8645C14.7906 36.8645 15.5529 37.6269 15.5529 38.5639C15.5529 39.5009 14.7906 40.2632 13.8536 40.2632ZM46.0143 33.246C38.4509 40.0249 28.0697 41.9562 18.9003 39.0409C18.9151 38.8837 18.9235 38.7248 18.9235 38.5639C18.9235 36.3591 17.5083 34.4794 15.5389 33.7831V23.6986L27.392 28.6239L46.0143 20.8859V33.246Z" fill="#0A2471"/>
</g>
<defs>
<clipPath id="clip0_130_350">
<rect width="54.3103" height="54.3103" fill="white"/>
</clipPath>
</defs>
</svg>
